 http://img513.imageshack.us/img513/1175/bellflower.jpg


Verenigde Staten
Actie / Drama
106 minuten

geregisseerd door Evan Glodell
met Evan Glodell, Jessie Wiseman en Tyler Dawson

Bellflower volgt twee vrienden die hun tijd verdoen met het bouwen van vlammenwerpers en andere wapens in de hoop dat er een wereldwijde apocalyps zal plaatsvinden die de weg vrij maakt voor hun denkbeeldige bende, Moeder Medusa. Tijdens het wachten op de totale vernietiging ontmoet een van hen een charismatische jonge vrouw waar hij verliefd op wordt. Al snel integreert hij in een nieuwe groep vrienden waarna het stel begint aan een trip van verraad, liefde, haat en extreem geweld, nog verwoestender dan die in hun apocalyptische fantasieen.



Vertaald door Simply ReleaseS Toppers
TackleR




Screenshots:
 
http://img607.imageshack.us/img607/469/screenshot1co.jpg
 
http://img573.imageshack.us/img573/7108/screenshot2ma.jpg
 
http://img508.imageshack.us/img508/9290/screenshot3gy.jpg
 
http://img511.imageshack.us/img511/1455/screenshot4w.jpg



INFO;


Format                                   : AVI
Format/Info                              : Audio Video Interleave
File size                                : 700 MiB
Duration                                 : 1h 45mn
Overall bit rate mode                    : Variable
Overall bit rate                         : 926 Kbps
Writing application                      : VirtualDubMod 1.5.10.2 (build 2542/release)
Writing library                          : VirtualDubMod build 2542/release

Video
ID                                       : 0
Format                                   : MPEG-4 Visual
Format profile                           : Advanced Simple@L5
Format settings, BVOP                    : 1
Format settings, QPel                    : No
Format settings, GMC                     : No warppoints
Format settings, Matrix                  : Default (H.263)
Muxing mode                              : Packed bitstream
Codec ID                                 : XVID
Codec ID/Hint                            : XviD
Duration                                 : 1h 45mn
Bit rate                                 : 783 Kbps
Width                                    : 640 pixels
Height                                   : 272 pixels
Display aspect ratio                     : 2.35:1
Frame rate                               : 23.976 fps
Color space                              : YUV
Chroma subsampling                       : 4:2:0
Bit depth                                : 8 bits
Scan type                                : Progressive
Compression mode                         : Lossy
Bits/(Pixel*Frame)                       : 0.188
Stream size                              : 592 MiB (85%)
Writing library                          : XviD 64

Audio
ID                                       : 1
Format                                   : MPEG Audio
Format version                           : Version 1
Format profile                           : Layer 3
Mode                                     : Joint stereo
Mode extension                           : MS Stereo
Codec ID                                 : 55
Codec ID/Hint                            : MP3
Duration                                 : 1h 45mn
Bit rate mode                            : Variable
Bit rate                                 : 128 Kbps
Channel(s)                               : 2 channels
Sampling rate                            : 48.0 KHz
Compression mode                         : Lossy
Stream size                              : 98.5 MiB (14%)
Alignment                                : Aligned on interleaves
Interleave, duration                     : 24 ms (0.58 video frame)
Interleave, preload duration             : 477 ms



 
http://www.moviemeter.nl/film/72895 
http://www.imdb.com/title/tt1242599/




Deze film wordt u aangeboden door het DutchReleaseTeam.
Voor de reviews van de nieuwste films, muziek, series, games etc
ga dan eens naar http://www.hetmultimediacafe.be

DutchReleaseteam = Hardcoded Dutch Subs